<svg
   viewBox="0 0 2400 1400"
   version="1.1"
   width="2400"
   height="1400"
   xmlns="http://www.w3.org/2000/svg">
  <title>HTML5 Logo</title>
  <path fill="#e44d26" d="m 801.30099,8.48955 h 62.1279 V 70.0772 H 920.6946 V 8.48955 h 62.12789 V 194.87323 H 920.6946 v -62.1279 h -56.72547 v 62.1279 H 801.30099 M 1064.9394,70.61744 h -54.8347 V 8.48955 h 172.0673 v 62.12789 h -55.1047 v 124.25579 h -62.1279 M 1209.4542,8.48955 h 65.0993 l 39.9779,65.63947 39.978,-65.63947 h 65.0992 v 186.38368 h -62.1279 v -92.38148 l -43.4895,66.99008 -43.4895,-66.99008 v 92.38148 h -61.0475 M 1450.4024,8.48955 h 62.1279 v 124.79603 h 88.0596 v 61.58765 h -150.1875" />
  <path fill="#e44d26" d="M 799.14002,1280.7608 710,280.23155 h 980 l -89.14,999.98905 -401.6704,111.2899" />
  <path fill="#f16529" d="M 1200,1306.4223 V 362.34842 h 400.5899 l -76.4444,853.58328" />
  <path fill="#ebebeb" d="M 892.06174,484.71336 H 1200 v 122.63506 h -173.4179 l 11.3451,125.6064 H 1200 V 855.31976 H 925.55678 m 5.40243,61.58765 h 123.17529 l 8.6439,98.05409 L 1200,1051.698 v 128.0375 l -251.75303,-70.2317" />
  <path fill="#ffffff" d="m 1506.8578,484.71336 h -307.398 v 122.63506 h 296.0529 m -11.075,125.6064 h -284.9779 v 122.63506 h 151.2679 l -14.3164,159.37162 -136.9515,36.7365 v 127.4972 l 251.2128,-69.6913" />
</svg>
